<svg width="112" height="42" viewBox="0 0 112 42" fill="none" xmlns="http://www.w3.org/2000/svg">
<path d="M21.3691 0.83675C20.5078 2.22308 20.1141 3.34691 20.2207 4.1262C20.3027 4.79886 20.5816 5.40589 20.9918 5.83245C21.5742 6.43948 21.5578 6.44769 21.8203 5.08597C21.9105 4.61839 22.0172 4.20003 22.0582 4.15902C22.1566 4.06058 22.2797 4.29847 22.5996 5.24183C22.9113 6.18519 23.0344 6.24261 23.4363 5.63558C23.8137 5.06956 23.9777 4.42972 23.9367 3.70784C23.9039 3.19925 23.8383 2.99417 23.5184 2.35433C23.1492 1.62425 22.1238 0.164093 21.927 0.106672C21.8777 0.0902658 21.6234 0.418391 21.3691 0.83675Z" fill="#A4EE08"/>
<path d="M27.2672 3.56014C25.7906 3.96209 25.0852 4.5117 24.8063 5.47967C24.6914 5.87342 24.6996 6.48045 24.8227 6.48045C24.8473 6.48045 25.1344 6.29178 25.4707 6.06209C25.7988 5.8324 26.1105 5.65193 26.1598 5.66834C26.209 5.69295 26.1105 5.98826 25.9219 6.39842L25.5937 7.09568L25.8152 7.12029C26.4633 7.20232 27.341 6.65271 27.6937 5.94725C27.9152 5.48787 28.2187 4.18357 28.2187 3.66678C28.2187 3.30584 28.2023 3.29764 27.2672 3.56014Z" fill="#A4EE08"/>
<path d="M9.76172 4.81523C9.76172 5.69297 9.88477 6.48867 10.0816 6.93164C10.377 7.57969 11.1891 8.19492 11.7551 8.20312C12.0258 8.20312 12.034 8.12109 11.7797 7.49766C11.3613 6.46406 11.4023 6.42305 12.2391 7.11211C12.8789 7.63711 12.9609 7.6207 12.9609 6.96445C12.9609 6.15234 12.518 5.41406 11.7223 4.92188C11.3121 4.66758 10.016 4.10156 9.85195 4.10156C9.79453 4.10156 9.76172 4.37227 9.76172 4.81523Z" fill="#A4EE08"/>
<path d="M14.7656 4.99559C14.7656 6.05379 14.8723 6.63621 15.143 7.11199C15.3481 7.47293 15.8813 7.94051 16.2668 8.10457C16.4883 8.19481 16.9805 8.24403 16.9805 8.1702C16.9805 8.14559 16.8738 7.84207 16.7344 7.48934C16.3406 6.48035 16.3817 6.43934 17.1856 7.09559C17.4891 7.34168 17.7598 7.53035 17.8008 7.50574C18.0387 7.35809 17.891 6.29989 17.5465 5.74207C17.2512 5.26629 16.6195 4.81512 15.7336 4.44598C14.6672 4.01121 14.7656 3.95379 14.7656 4.99559Z" fill="#A4EE08"/>
<path d="M19.0805 6.94805C18.5063 8.72813 18.5473 9.53203 19.2774 10.3688C19.507 10.6313 19.909 10.9102 20.0566 10.9102C20.0813 10.9102 20.0977 10.541 20.0977 10.0898C20.0977 9.63867 20.1305 9.26953 20.1715 9.26953C20.2125 9.26953 20.4094 9.53203 20.6063 9.86016C20.8031 10.1801 21 10.459 21.0492 10.4754C21.0984 10.4918 21.2133 10.4016 21.2953 10.2785C21.4184 10.098 21.4512 9.90117 21.4512 9.31055C21.4512 8.49023 21.3937 8.33438 20.8441 7.66992C20.5078 7.25977 19.466 6.31641 19.3512 6.31641C19.3184 6.31641 19.1953 6.60352 19.0805 6.94805Z" fill="#A4EE08"/>
<path d="M28.5141 7.43192C27.3082 7.76004 26.6356 8.20301 26.2664 8.91669C26.1024 9.212 25.9957 9.86825 26.0695 10.1143L26.1352 10.3522L26.7422 9.93387C27.3 9.55653 27.5625 9.43348 27.5625 9.55653C27.5625 9.58114 27.4313 9.86005 27.2754 10.1718C26.8817 10.9593 26.8899 11.0249 27.3903 10.9675C28.1203 10.8772 28.8422 10.2784 29.1293 9.53192C29.318 9.01512 29.5231 8.00614 29.5313 7.52215C29.5313 7.15301 29.5231 7.15301 28.5141 7.43192Z" fill="#A4EE08"/>
<path d="M34.3219 7.41552C32.9684 7.78467 32.3039 8.25224 31.9512 9.06435C31.8117 9.39248 31.7461 10.1964 31.8446 10.303C31.8774 10.3276 32.1645 10.1636 32.4926 9.93389C33.0012 9.57295 33.3047 9.43349 33.3047 9.54834C33.3047 9.56474 33.1735 9.85185 33.0176 10.1964C32.8617 10.5409 32.7305 10.8608 32.7305 10.9183C32.7305 10.9839 32.8535 11.0003 33.157 10.9675C33.8789 10.8772 34.5762 10.2948 34.8633 9.53193C35.0602 9.01514 35.2652 8.00615 35.2734 7.52217C35.2734 7.16123 35.257 7.15302 34.3219 7.41552Z" fill="#A4EE08"/>
<path d="M3.77344 7.76021C3.34688 7.87505 2.98594 7.98169 2.96133 7.9981C2.82188 8.14575 4.4543 9.92583 4.94648 10.1637C5.63555 10.4918 6.52969 10.459 6.98086 10.0981L7.17773 9.94224L6.54609 9.54849C5.68476 9.00708 5.70117 8.90044 6.63633 8.96607C7.03828 8.99068 7.38281 8.99068 7.40742 8.96607C7.43203 8.94966 7.41562 8.81841 7.3664 8.69536C7.26797 8.39185 6.72656 7.90786 6.28359 7.70279C5.7832 7.4731 4.75781 7.49771 3.77344 7.76021Z" fill="#A4EE08"/>
<path d="M23.4938 8.54772C21.8777 10.2376 21.4266 11.2958 21.7793 12.5919C21.9516 13.2481 22.3453 13.8387 22.5176 13.6993C22.575 13.6501 22.7801 13.2399 22.977 12.7887C23.4938 11.5829 23.5676 11.5911 23.707 12.92C23.7645 13.4122 23.8383 13.8551 23.8711 13.8962C24.0762 14.1094 24.9129 13.2071 25.1918 12.4852C25.4379 11.8208 25.4707 11.4352 25.3148 10.6641C25.1344 9.7946 24.3715 7.87507 24.1992 7.87507C24.1664 7.87507 23.8465 8.17858 23.4938 8.54772Z" fill="#A4EE08"/>
<path d="M15.0938 9.99958C15.0938 10.9101 15.2086 11.8863 15.3891 12.5179C15.6926 13.5843 16.6852 14.4785 17.6777 14.5769C18.2355 14.6343 18.2355 14.6343 17.8008 13.5925C17.2758 12.3375 17.3414 12.2882 18.3996 13.125C19.1461 13.7156 19.2281 13.7566 19.3184 13.609C19.4168 13.4531 19.3676 12.4277 19.2445 12.075C18.8262 10.8937 17.9813 10.2457 15.8566 9.46637L15.0938 9.18747V9.99958Z" fill="#A4EE08"/>
<path d="M9.67969 9.65495C9.30235 9.72057 8.24414 10.0241 8.17852 10.0897C8.08828 10.1717 9.02344 11.4022 9.45821 11.7714C10.0406 12.2799 10.3852 12.4194 11.0742 12.4194C11.5172 12.4276 11.7715 12.3866 12.0012 12.2717C12.1652 12.1897 12.3047 12.0913 12.3047 12.0585C12.3047 12.0256 12.0094 11.8042 11.6402 11.5745C11.2711 11.3366 11.0086 11.1151 11.0332 11.0659C11.0742 11.0085 11.3367 11.0003 11.8125 11.0413C12.2719 11.0741 12.5508 11.0659 12.5836 11.0085C12.6082 10.9674 12.5098 10.746 12.3621 10.5327C12.1652 10.2374 11.9684 10.0651 11.5828 9.86823C11.1234 9.63034 10.984 9.59752 10.4754 9.60573C10.1473 9.61393 9.79453 9.63854 9.67969 9.65495Z" fill="#A4EE08"/>
<path d="M28.1039 11.9847C27.0539 12.1242 26.1844 12.6902 25.7332 13.5187C25.4707 14.0027 25.3559 14.6015 25.5199 14.6015C25.5856 14.6015 26.0039 14.4867 26.4469 14.3554C27.3082 14.0929 27.5625 14.0601 27.5625 14.1913C27.5625 14.2324 27.2672 14.5851 26.9063 14.9624C26.5453 15.348 26.25 15.7007 26.25 15.7417C26.25 15.8976 26.8488 16.0206 27.4149 15.9714C28.8012 15.8566 29.6215 15.1101 30.6387 13.0265L31.0981 12.0995L30.893 12.0503C30.5239 11.9519 28.6781 11.9027 28.1039 11.9847Z" fill="#A4EE08"/>
<path d="M33.0094 12.4686C32.7305 12.5096 32.3532 12.6163 32.1809 12.6983C31.5821 13.01 31.0078 13.7565 31.0078 14.2323C31.0078 14.4784 31.0899 14.4866 31.6723 14.2897C32.7387 13.9206 32.7879 13.9698 32.0742 14.7163C31.8035 15.0034 31.5821 15.2741 31.5821 15.3151C31.5821 15.4463 32.1727 15.5284 32.6403 15.4627C33.2555 15.3807 33.8133 15.0116 34.2399 14.4127C34.6992 13.7729 35.2407 12.6491 35.1422 12.5588C35.0274 12.4522 33.5754 12.3948 33.0094 12.4686Z" fill="#A4EE08"/>
<path d="M5.53714 13.3135C5.03675 13.4858 4.36409 13.8385 3.79808 14.2487C3.51097 14.4455 3.28128 14.626 3.28128 14.6506C3.28128 14.7409 4.80706 15.676 5.20902 15.8237C5.85706 16.0698 6.53792 16.0534 7.09574 15.7827C7.5305 15.5776 7.91605 15.2248 7.83402 15.0936C7.80941 15.0526 7.59613 14.987 7.35824 14.9295C6.57894 14.7655 6.30824 14.6752 6.35745 14.6014C6.38206 14.5604 6.71839 14.4291 7.09574 14.3143C7.48128 14.1913 7.793 14.0682 7.793 14.0354C7.793 13.9205 7.33363 13.5432 7.03831 13.4202C6.60355 13.2315 5.92269 13.1905 5.53714 13.3135Z" fill="#A4EE08"/>
<path d="M12.0996 14.4786C11.6977 14.577 11.1152 14.7739 10.8199 14.9051C10.0652 15.225 8.44922 16.0946 8.44922 16.1766C8.44922 16.2914 10.1965 17.7352 10.8609 18.17C12.157 19.0149 13.1742 19.2692 14.298 19.0395C15.1594 18.859 16.2504 18.1618 16.1438 17.8664C16.1191 17.809 15.6434 17.5957 15.0855 17.3989C14.5277 17.202 13.9617 16.9887 13.8305 16.9231C13.4367 16.718 13.7156 16.5868 15.0117 16.3653C15.6598 16.2586 16.2258 16.1274 16.2668 16.0864C16.4309 15.9223 15.6352 15.0856 15.0117 14.7657C14.5852 14.5442 13.5188 14.2735 13.1332 14.2735C12.9691 14.2817 12.5098 14.3719 12.0996 14.4786Z" fill="#A4EE08"/>
<path d="M36.8731 14.5112C36.5039 14.6015 36.1184 14.8229 35.9789 15.028C35.741 15.3644 35.8066 15.4218 36.3809 15.4218C36.6844 15.4218 36.9141 15.4546 36.9141 15.5038C36.9141 15.553 36.709 15.6843 36.4629 15.8073C36.2168 15.9304 36.0117 16.0616 36.0117 16.0944C36.0117 16.2339 36.5695 16.439 36.9551 16.439C37.4965 16.439 37.8656 16.2503 38.5383 15.6269L39.0879 15.1183L38.7598 14.9542C38.0625 14.6015 37.2668 14.421 36.8731 14.5112Z" fill="#A4EE08"/>
<path d="M20.9016 15.7336C16.3324 22.214 15.2988 26.8652 17.1035 32.8535C17.4398 33.9773 17.8418 35.0847 18.2848 36.0855C18.4734 36.5121 18.6211 36.8648 18.6211 36.8648C18.6211 36.873 18.2602 36.873 17.8172 36.873C17.1199 36.873 16.9887 36.8484 16.759 36.6843C15.6516 35.8968 14.5523 35.9543 12.9773 36.8812C12.0996 37.4062 10.1145 38.8992 10.016 39.1125C9.89297 39.375 9.90118 40.3019 10.0242 40.4578C10.1965 40.6711 14.175 41.5324 16.193 41.7949C18.9492 42.1476 23.666 41.9836 26.0039 41.4586C26.9883 41.2371 30.3106 40.3347 30.3762 40.2773C30.491 40.1789 29.6543 39.2437 29.0883 38.85C27.9891 38.0625 27.1523 37.841 24.8965 37.7343C22.5586 37.6277 21.927 37.4226 21.0328 36.4957C20.2289 35.6425 19.8762 34.6254 19.1543 31.0898C18.7113 28.9324 18.6785 28.4074 18.941 27.866C19.1953 27.341 19.466 27.1359 20.7539 26.5043C22.009 25.8808 22.6406 25.4789 23.5512 24.716C24.4617 23.9531 25.4461 22.7882 26.0941 21.6972C26.2828 21.3773 26.2828 21.3691 26.1105 21.4921C26.0121 21.5578 24.716 22.4273 23.2395 23.4281C20.5078 25.2656 19.1707 26.0285 18.7934 25.9875C18.6047 25.9629 18.5801 25.9218 18.5555 25.6019C18.5227 25.1343 18.7441 23.6168 18.9984 22.5996C19.3266 21.2953 19.5645 20.557 20.6063 17.6449C21.1395 16.1437 21.566 14.8968 21.5496 14.8804C21.5332 14.864 21.2461 15.2496 20.9016 15.7336Z" fill="#A4EE08"/>
<path d="M24.0762 16.3735C23.986 16.3899 23.7235 16.4473 23.4856 16.4965C22.7391 16.6442 22.009 17.3743 21.8696 18.1044C21.8121 18.4325 21.8285 18.4325 22.6817 18.17C23.0426 18.0551 23.3625 17.9649 23.4035 17.9649C23.5512 17.9649 23.4281 18.1618 22.9524 18.6622C22.3863 19.2692 22.3946 19.3594 23.0262 19.4168C23.666 19.4825 24.3141 19.2118 24.8227 18.6704C25.2164 18.2602 26.1844 16.554 26.086 16.4637C26.0285 16.4063 24.2731 16.3325 24.0762 16.3735Z" fill="#A4EE08"/>
<path d="M29.2524 17.5137C28.4731 17.6613 28.0711 17.8336 27.5133 18.2602C26.6684 18.9 26.0859 19.827 26.0613 20.5735C26.0449 21.041 25.9793 21.041 27.4887 20.5817C28.5797 20.2535 28.875 20.2043 28.875 20.3356C28.875 20.4504 28.5141 20.8688 27.743 21.6727C27.3656 22.0664 27.0703 22.4356 27.0867 22.493C27.1852 22.7883 28.5387 22.9031 29.359 22.6817C30.9012 22.2715 31.8528 21.2379 33.0668 18.6211L33.5508 17.5957L33.3211 17.5301C33.1981 17.4973 32.3778 17.4481 31.5 17.4317C30.2942 17.3988 29.7445 17.4235 29.2524 17.5137Z" fill="#A4EE08"/>
<path d="M34.7402 18.736C34.4613 18.859 34.166 19.1625 34.2645 19.22C34.2973 19.2364 34.527 19.302 34.7649 19.3594C34.9945 19.4086 35.1914 19.4825 35.1914 19.5235C35.1914 19.5563 35.0192 19.6301 34.8059 19.6875C34.5844 19.745 34.3793 19.827 34.3383 19.8598C34.2235 19.9664 34.4285 20.1551 34.8223 20.311C35.3227 20.4996 35.7902 20.4094 36.4301 20.0157C37.2832 19.4907 37.234 19.5481 36.9551 19.3102C36.2824 18.736 35.3145 18.4817 34.7402 18.736Z" fill="#A4EE08"/>
<path d="M7.83398 18.8179C7.3582 18.9655 6.8496 19.2444 6.16874 19.712L5.56992 20.1222L6.00468 20.4421C7.24335 21.3444 8.32617 21.6562 9.18749 21.3691C9.61406 21.2296 10.2867 20.7128 10.2129 20.5898C10.1883 20.5569 9.97499 20.4831 9.74531 20.4257C8.88398 20.2288 8.69531 20.1714 8.69531 20.0976C8.69531 20.0566 9.00703 19.9253 9.39257 19.8105C9.76992 19.6956 10.1062 19.5644 10.1309 19.5234C10.2047 19.4003 9.57304 18.9491 9.15468 18.8261C8.6707 18.6784 8.27695 18.6784 7.83398 18.8179Z" fill="#A4EE08"/>
<path d="M13.3957 20.2617C12.8051 20.4176 10.9922 21.2789 10.9922 21.4101C10.9922 21.5414 12.5098 22.7227 13.0676 23.0262C13.6254 23.3215 13.6992 23.3379 14.3965 23.3379C15.0117 23.3379 15.2004 23.3051 15.5203 23.141C15.7336 23.0262 15.9879 22.8621 16.0781 22.7637C16.2914 22.534 16.2422 22.493 15.3809 22.1894C14.2734 21.8039 14.2816 21.7301 15.4219 21.5332C15.8484 21.4594 16.234 21.3691 16.2668 21.3363C16.3734 21.2297 15.8566 20.6883 15.4711 20.4914C15.1019 20.3027 14.4047 20.0976 14.1504 20.1058C14.0602 20.1058 13.7156 20.1797 13.3957 20.2617Z" fill="#A4EE08"/>
<path d="M53.376 13.928C50.704 13.56 49.936 12.84 49.936 11.896C49.936 10.376 51.616 9.86399 53.232 9.86399C55.84 9.86399 55.936 11.192 55.936 13.336L58.176 13.032C58.176 10.568 56.352 9.60799 53.232 9.60799C51.008 9.60799 48.976 10.52 48.976 12.552C48.976 14.584 49.984 15.56 53.344 16.056C56.032 16.456 57.616 17 57.616 18.456C57.616 20.488 56.464 21 53.76 21C51.232 21 51.168 19.4 51.168 17.128L48.704 17.496C48.704 20.28 50.4 21.256 53.76 21.256C57.152 21.256 58.736 20.424 58.736 17.976C58.736 16.168 58.048 14.568 53.376 13.928Z" fill="#272727"/>
<path d="M59.9975 17.016C59.9975 19.448 61.8215 21.256 64.8455 21.256C67.3255 21.256 68.4935 20.04 68.7655 19.816L68.6375 19.656C67.5975 20.552 66.3015 20.984 64.8455 20.984C62.9895 20.984 62.4935 19.32 62.3975 17.752H68.5575C68.5575 15.096 68.2055 12.76 64.8455 12.76C62.3175 12.76 59.9975 14.248 59.9975 17.016ZM64.8455 13.016C67.7895 13.016 68.2535 15.096 68.2535 17.496H62.3815C62.3175 15.8 62.5575 13.016 64.8455 13.016Z" fill="#272727"/>
<path d="M74.5799 21.256C77.0599 21.256 78.2279 20.04 78.4999 19.816L78.3719 19.656C77.3319 20.552 76.0359 20.984 74.5799 20.984C72.6759 20.984 72.0999 19.256 72.0999 17.016C72.0999 14.344 73.0279 13.016 74.5799 13.016C76.7399 13.016 77.5719 13.96 77.7479 15L78.0199 14.936C77.8439 13.768 76.7719 12.76 74.5799 12.76C71.6999 12.76 69.7319 14.552 69.7319 17.016C69.7319 19.448 71.5559 21.256 74.5799 21.256Z" fill="#272727"/>
<path d="M79.1538 17.016C79.1538 19.816 81.5858 21.256 84.2098 21.256C86.8178 21.256 89.2658 19.816 89.2658 17.016C89.2658 14.2 86.8178 12.744 84.2098 12.744C81.5858 12.744 79.1538 14.2 79.1538 17.016ZM84.2098 12.984C86.2098 12.984 86.9298 14.248 86.9298 17.016C86.9298 19.736 86.3218 21.016 84.2098 21.016C82.0338 21.016 81.4898 19.736 81.4898 17.016C81.4898 14.248 82.2258 12.984 84.2098 12.984Z" fill="#272727"/>
<path d="M90.6281 21H92.9001C92.9001 18.664 93.3481 13.016 96.5481 13.016C97.5081 13.016 97.9081 13.592 97.9081 15.336V21H100.196V17.32C100.196 14.264 99.1081 12.744 96.5481 12.744C94.1001 12.744 93.2361 15.672 92.9001 17.672V13H90.6281V21Z" fill="#272727"/>
<path d="M105.736 21.256C107.528 21.256 108.392 20.376 109.064 18.36C109.224 17.896 109.304 17.4 109.384 16.92V21.016H111.656V8.79199H109.384C109.384 8.79199 109.384 13.208 109.384 13.352C108.936 13.128 108.04 12.744 106.696 12.744C104.072 12.744 101.56 13.352 101.56 16.904C101.56 20.328 103.432 21.256 105.736 21.256ZM107.064 12.968C108.408 12.968 108.952 13.384 109.384 13.592C109.368 15.72 109.096 21 106.104 21C104.376 21 103.896 19.224 103.896 16.888C103.896 13.512 105.08 12.968 107.064 12.968Z" fill="#272727"/>
<path d="M48.8 28.848V40H51.072V34.336H57.216V40H59.488V28.848H57.216V34.08H51.072V28.848H48.8Z" fill="#272727"/>
<path d="M64.6173 40.256C67.1293 40.256 67.8813 38.272 68.2333 36.176L68.2653 35.984V40H70.5373V34.992C70.5373 32.224 68.1373 31.744 66.2013 31.744C63.3053 31.744 62.0253 32.8 61.5293 33.616L63.1933 34.416C61.8653 34.704 60.8413 35.616 60.8413 37.088C60.8413 39.712 62.4733 40.256 64.6173 40.256ZM65.1293 34.512H68.1853C67.9933 36.816 67.5453 40 64.6013 40C63.6573 40 63.1773 39.344 63.1773 37.248C63.1773 35.248 63.8333 34.512 65.1293 34.512ZM63.8333 34.304C63.8333 33.92 64.3773 31.936 66.1053 31.936C68.1213 31.936 68.2173 32.624 68.2173 34.256H64.6013C64.3293 34.256 64.0733 34.272 63.8333 34.304Z" fill="#272727"/>
<path d="M72.1438 40H74.4158C74.4158 37.664 74.8638 32.016 78.0638 32.016C79.0238 32.016 79.4238 32.592 79.4238 34.336V40H81.7118V36.32C81.7118 33.264 80.6238 31.744 78.0638 31.744C75.6158 31.744 74.7518 34.672 74.4158 36.672V32H72.1438V40Z" fill="#272727"/>
<path d="M87.2516 40.256C89.0436 40.256 89.9076 39.376 90.5796 37.36C90.7396 36.896 90.8196 36.4 90.8996 35.92V40.016H93.1716V27.792H90.8996C90.8996 27.792 90.8996 32.208 90.8996 32.352C90.4516 32.128 89.5556 31.744 88.2116 31.744C85.5876 31.744 83.0756 32.352 83.0756 35.904C83.0756 39.328 84.9476 40.256 87.2516 40.256ZM88.5796 31.968C89.9236 31.968 90.4676 32.384 90.8996 32.592C90.8836 34.72 90.6116 40 87.6196 40C85.8916 40 85.4116 38.224 85.4116 35.888C85.4116 32.512 86.5956 31.968 88.5796 31.968Z" fill="#272727"/>
</svg>
